<?xml version="1.0" encoding="utf-8"?>
<!-- Uploaded to: SVG Repo, www.svgrepo.com, Generator: SVG Repo Mixer Tools -->
<svg fill="#000000" version="1.1" id="Layer_1" xmlns="http://www.w3.org/2000/svg" xmlns:xlink="http://www.w3.org/1999/xlink" 
	 width="800px" height="800px" viewBox="0 0 245 256" enable-background="new 0 0 245 256" xml:space="preserve">
<path d="M94.338,47.137c0,0,0,1.603,0,2.452c0,15.611,12.654,28.265,28.265,28.265s28.265-12.654,28.265-28.265
	c0-0.849,0-2.452,0-2.452S94.338,47.137,94.338,47.137z M161.906,33.326v7.881H83.094v-7.881h5.517
	c1.058-13.06,9.469-24.039,21.088-28.794v16.972h4.926V2.942C117.184,2.328,119.855,2,122.603,2c2.678,0,5.282,0.315,7.782,0.898
	v18.606h4.926V4.448c11.722,4.711,20.221,15.743,21.285,28.878H161.906z M236.606,134.036c-3.92-3.75-9.073-5.689-14.507-5.445
	c-10.552,0.466-18.817,9.328-18.817,20.177v11.643h-9.852v-39.406c0-19.443-16.309-35.016-35.676-35.016h-7.659l-20.7,34.031
	l-2.955-25.936l2.955-8.171h-13.792l2.955,8.171l-2.955,25.936L94.915,85.988h-7.67c-19.443,0-35.676,15.649-35.676,35.016v39.406
	h-9.852V148.76c0-10.849-8.265-19.712-18.816-20.177c-5.43-0.236-10.586,1.694-14.507,5.446c-3.923,3.753-6.083,8.81-6.083,14.238
	v85.469h0.008c-0.15,5.308,1.776,10.327,5.445,14.169c3.755,3.931,8.815,6.096,14.25,6.096h200.971
	c5.435,0,10.496-2.165,14.25-6.097c3.668-3.841,5.594-8.858,5.446-14.164l0.007-85.466
	C242.688,142.845,240.528,137.79,236.606,134.036z M164.861,127.9c1.632,0,2.955,1.323,2.955,2.955v29.555h-5.911v-29.555
	C161.906,129.224,163.229,127.9,164.861,127.9z M77.183,130.856c0-1.632,1.323-2.955,2.955-2.955c1.632,0,2.955,1.323,2.955,2.955
	v29.555h-5.911V130.856z M10.192,148.266c0-3.257,1.296-6.291,3.651-8.543c2.221-2.126,5.052-3.449,8.711-3.267
	c6.22,0.309,11.282,5.794,11.282,12.304v69.77c-3.648-2.751-8.099-4.129-12.748-3.916c-4.058,0.187-7.821,1.641-10.896,3.969
	V148.266z M231.536,242.46c-2.253,2.359-5.289,3.659-8.551,3.659H22.014c-3.261,0-6.298-1.299-8.551-3.659
	c-2.251-2.357-3.409-5.457-3.259-8.727c0.278-6.028,5.217-10.968,11.246-11.246c3.276-0.146,6.37,1.006,8.727,3.259
	c2.359,2.253,3.659,5.289,3.659,8.551h7.881v-66.005h9.852v26.599c0,6.81,5.997,11.822,12.807,11.822s12.807-5.012,12.807-11.822
	v-26.599h90.634v26.599c0,6.81,5.997,12.807,12.807,12.807c6.81,0,12.807-5.997,12.807-12.807v-26.599h9.852v66.005h7.881
	c0-3.261,1.3-6.298,3.659-8.551c2.357-2.252,5.442-3.412,8.727-3.259c6.028,0.277,10.968,5.217,11.246,11.246
	C234.946,237.003,233.788,240.103,231.536,242.46z M234.807,218.584c-3.075-2.328-6.445-3.991-11.834-3.991
	c-4.31,0-8.407,1.372-11.809,3.937v-69.762c0-6.51,5.061-12.03,11.282-12.304c3.261-0.143,6.358,1.015,8.711,3.266
	c2.354,2.252,3.65,5.287,3.65,8.543V218.584z"/>
</svg>