<?xml version="1.0" encoding="utf-8"?><!-- Uploaded to: SVG Repo, www.svgrepo.com, Generator: SVG Repo Mixer Tools -->
<svg fill="#000000" width="800px" height="800px" viewBox="0 0 24 24" id="blueprint-architecture-2" data-name="Flat Color" xmlns="http://www.w3.org/2000/svg" class="icon flat-color"><path id="primary" d="M3,8H17V6a1,1,0,0,1,1-1h2a2,2,0,0,1,2,2V20a2,2,0,0,1-2,2H3a1,1,0,0,1-1-1V9A1,1,0,0,1,3,8Z" style="fill: rgb(0, 0, 0);"></path><path id="secondary" d="M18,5h2a2,2,0,0,1,2,2V20a2,2,0,0,0-2-2H18a1,1,0,0,1-1-1V6A1,1,0,0,1,18,5ZM2.29,5.09,8.9,11.71a1.05,1.05,0,0,0,.71.29H11a1,1,0,0,0,1-1V9.61a1.05,1.05,0,0,0-.29-.71L5.09,2.29a1,1,0,0,0-1.4,0l-1.4,1.4A1,1,0,0,0,2.29,5.09Z" style="fill: rgb(44, 169, 188);"></path></svg>