<?xml version="1.0" encoding="utf-8"?>
<!-- Uploaded to: SVG Repo, www.svgrepo.com, Generator: SVG Repo Mixer Tools -->
<svg width="100px" height="100px" viewBox="0 0 1024 1024" class="icon"  version="1.1" xmlns="http://www.w3.org/2000/svg"><path d="M887.2 277.4H136.8c-8.3 0-15 6.7-15 15v439.3c0 8.3 6.7 15 15 15h515.3l250-250V292.4c0.1-8.3-6.7-15-14.9-15zM245.6 635.8c0-58.1 36.4-107.6 87.4-126.3-16.5-13-27-33.1-27-55.8 0-39.3 31.8-71.1 71.1-71.1s71.1 31.8 71.1 71.1c0 22.2-10.2 42-26.1 55.1 52 18.2 89.4 68.2 89.4 127H245.6zM887.2 746.6c8.3 0 15-6.7 15-15V669l-77.6 77.6h62.6zM782.1 746.6l120.1-120V539L694.6 746.6z" fill="#FFBC00" /><path d="M887.2 247.4H136.8c-24.8 0-45 20.2-45 45v439.3c0 24.8 20.2 45 45 45h750.3c24.8 0 45-20.2 45-45V292.4c0.1-24.8-20.1-45-44.9-45z m15 484.2c0 8.3-6.7 15-15 15h-62.6l77.6-77.6v62.6z m0-105l-120.1 120h-87.5L902.2 539v87.6z m0-130l-250 250H136.8c-8.3 0-15-6.7-15-15V292.4c0-8.3 6.7-15 15-15h750.3c8.3 0 15 6.7 15 15v204.2z" fill="#46287C" /><path d="M422 508.8c15.9-13 26.1-32.9 26.1-55.1 0-39.3-31.8-71.1-71.1-71.1s-71.1 31.8-71.1 71.1c0 22.6 10.6 42.7 27 55.8-51 18.8-87.4 68.3-87.4 126.3h265.8c0-58.8-37.3-108.8-89.3-127z" fill="#FFFFFF" /></svg>